<svg xmlns="http://www.w3.org/2000/svg" width="189" height="35" fill="#984FB7" viewBox="0 0 189 35">
                        <g>
                            <path fill="var(--rbsm-purple)" d="M27.99 8.03h-6.379a.878.878 0 0 1-.625-.26L13.642.527C12.527-.598 10.62.198 10.62 1.787v6.239L3.022.526C1.906-.597 0 .199 0 1.787v31.217a1.78 1.78 0 0 0 1.772 1.786h7.08c.978 0 1.773-.8 1.773-1.786v-1.786a1.78 1.78 0 0 1 1.772-1.786H24.79c.977 0 1.772.8 1.772 1.786v1.786a1.78 1.78 0 0 0 1.772 1.786h7.08c.978 0 1.773-.8 1.773-1.786V17.284c0-.787-.313-1.543-.866-2.1l-6.237-6.285A2.939 2.939 0 0 0 28 8.026l-.009.004ZM11.51 24.086H9.736A1.78 1.78 0 0 1 7.964 22.3v-1.786a1.78 1.78 0 0 1 1.772-1.786h1.773c.977 0 1.772.801 1.772 1.786V22.3a1.78 1.78 0 0 1-1.772 1.786Zm15.932 0H25.67a1.78 1.78 0 0 1-1.772-1.786v-1.786a1.78 1.78 0 0 1 1.772-1.786h1.772c.978 0 1.773.801 1.773 1.786V22.3a1.78 1.78 0 0 1-1.773 1.786Z"/>
                            <path fill="currentColor" d="M58.727 27.645c1.343-.603 2.383-1.467 3.111-2.6.728-1.134 1.094-2.484 1.094-4.054 0-1.57-.366-2.924-1.094-4.067-.728-1.142-1.763-2.02-3.111-2.631-1.349-.612-2.96-.918-4.84-.918h-8.74v21.41h3.946v-6.24h4.794c.282 0 .558-.01.83-.023l4.33 6.262h4.25l-4.878-7.013c.102-.04.21-.081.312-.126h-.005Zm-1.094-9.803c.88.734 1.321 1.786 1.321 3.15 0 1.362-.442 2.397-1.321 3.148-.88.756-2.192 1.134-3.929 1.134h-4.611V16.74h4.611c1.741 0 3.05.369 3.929 1.102ZM78.726 19.336c-1.303-.715-2.799-1.07-4.477-1.07-1.679 0-3.138.355-4.433 1.07a8.02 8.02 0 0 0-3.067 2.952c-.75 1.255-1.125 2.694-1.125 4.327s.375 3.05 1.125 4.315a8.101 8.101 0 0 0 3.067 2.982c1.294.724 2.772 1.084 4.433 1.084 1.66 0 3.17-.36 4.477-1.084a7.977 7.977 0 0 0 3.067-2.982c.737-1.265 1.107-2.704 1.107-4.315 0-1.61-.37-3.1-1.107-4.341a7.929 7.929 0 0 0-3.067-2.938Zm-.272 10.001c-.415.774-.986 1.368-1.714 1.773-.728.409-1.558.611-2.487.611-.928 0-1.723-.202-2.442-.611-.718-.41-1.29-1-1.714-1.773-.424-.774-.638-1.683-.638-2.722s.214-1.975.638-2.74a4.465 4.465 0 0 1 1.714-1.759c.72-.409 1.545-.611 2.473-.611.93 0 1.733.202 2.46.611.728.41 1.3.995 1.715 1.76.415.764.62 1.677.62 2.74 0 1.06-.21 1.947-.62 2.721h-.005ZM99.757 19.31c-1.224-.693-2.634-1.04-4.233-1.04-1.317 0-2.513.302-3.598.905a5.951 5.951 0 0 0-1.593 1.29v-8.371h-3.795V34.79h3.612v-2.164a5.93 5.93 0 0 0 1.7 1.458c1.072.611 2.295.917 3.675.917 1.598 0 3.008-.35 4.231-1.057a7.823 7.823 0 0 0 2.916-2.92c.718-1.241 1.075-2.712 1.075-4.404 0-1.691-.361-3.163-1.075-4.404-.719-1.242-1.688-2.213-2.915-2.906Zm-.5 10.032c-.425.774-.996 1.367-1.715 1.772-.718.41-1.53.612-2.442.612-.91 0-1.732-.202-2.46-.612-.727-.41-1.303-.998-1.731-1.772-.425-.774-.639-1.683-.639-2.722 0-1.04.214-1.975.639-2.74a4.42 4.42 0 0 1 1.732-1.759c.727-.409 1.549-.611 2.46-.611.91 0 1.723.202 2.441.611.719.41 1.29.995 1.715 1.76.424.764.638 1.677.638 2.74 0 1.06-.214 1.947-.638 2.72ZM119.123 19.336c-1.304-.715-2.799-1.07-4.478-1.07-1.678 0-3.138.355-4.433 1.07a8.025 8.025 0 0 0-3.067 2.952c-.75 1.255-1.124 2.694-1.124 4.327s.374 3.05 1.124 4.315a8.106 8.106 0 0 0 3.067 2.982c1.295.724 2.773 1.084 4.433 1.084 1.661 0 3.17-.36 4.478-1.084a7.98 7.98 0 0 0 3.067-2.982c.736-1.265 1.107-2.704 1.107-4.315 0-1.61-.371-3.1-1.107-4.341a7.929 7.929 0 0 0-3.067-2.938Zm-.272 10.001c-.416.774-.987 1.368-1.715 1.773-.727.409-1.558.611-2.486.611-.929 0-1.723-.202-2.442-.611-.719-.41-1.29-1-1.714-1.773-.424-.774-.639-1.683-.639-2.722s.215-1.975.639-2.74a4.463 4.463 0 0 1 1.714-1.759c.719-.409 1.544-.611 2.473-.611.929 0 1.732.202 2.46.611.727.41 1.299.995 1.714 1.76.415.764.621 1.677.621 2.74 0 1.06-.21 1.947-.621 2.721h-.004ZM137.301 26.386a9.1 9.1 0 0 0-1.96-.752c-.71-.184-1.419-.319-2.138-.413a17.332 17.332 0 0 1-1.96-.351c-.589-.144-1.062-.338-1.429-.58-.366-.243-.544-.612-.544-1.103 0-.53.277-.967.835-1.313.558-.347 1.41-.522 2.567-.522.767 0 1.544.085 2.321.26a7.736 7.736 0 0 1 2.321.963l1.456-2.906c-.728-.45-1.648-.796-2.764-1.039a15.453 15.453 0 0 0-3.308-.364c-1.455 0-2.718.207-3.776.625-1.063.418-1.889 1.008-2.474 1.772-.584.765-.879 1.67-.879 2.709 0 .94.183 1.691.545 2.262a4.08 4.08 0 0 0 1.428 1.364 7.299 7.299 0 0 0 1.956.764c.718.176 1.437.31 2.156.414.718.104 1.37.216 1.959.338.585.121 1.063.301 1.429.535.366.234.545.576.545 1.026 0 .549-.268.99-.804 1.313-.536.324-1.402.49-2.594.49-1.013 0-2.022-.152-3.035-.458-1.014-.306-1.884-.693-2.612-1.16l-1.455 2.905c.728.509 1.714.945 2.96 1.3 1.245.356 2.544.536 3.901.536 1.518 0 2.822-.212 3.915-.625 1.094-.419 1.938-1.004 2.536-1.76.598-.755.897-1.642.897-2.658 0-.918-.183-1.66-.544-2.232a3.814 3.814 0 0 0-1.442-1.331l-.009-.01ZM166.344 19.447c-.941-.5-2.049-.752-3.321-.752-1.678 0-3.107.423-4.281 1.269a6.293 6.293 0 0 0-2.116 2.587c-.357-1.125-.96-2.011-1.813-2.645-1.084-.806-2.41-1.21-3.99-1.21-1.581 0-2.853.36-3.947 1.083a5.95 5.95 0 0 0-2.125 2.452v-3.414h-1.455v15.966h1.518V26.28c0-1.287.232-2.384.696-3.302a5.08 5.08 0 0 1 2.005-2.141c.87-.509 1.901-.765 3.093-.765 1.558 0 2.772.468 3.643 1.408s1.304 2.303 1.304 4.098v9.205h1.517V26.28c0-1.287.233-2.384.697-3.302a5.085 5.085 0 0 1 2.004-2.141c.871-.509 1.902-.765 3.094-.765 1.558 0 2.772.468 3.643 1.408.87.94 1.303 2.303 1.303 4.098v9.205h1.518v-9.33c0-1.49-.263-2.74-.79-3.748s-1.259-1.763-2.201-2.263l.004.005ZM188.013 22.533c-.656-1.215-1.558-2.155-2.701-2.83-1.142-.675-2.432-1.008-3.87-1.008-1.437 0-2.732.347-3.884 1.04a7.344 7.344 0 0 0-2.714 2.86c-.656 1.215-.987 2.614-.987 4.207s.349 2.965 1.049 4.188a7.536 7.536 0 0 0 2.884 2.875c1.224.693 2.634 1.04 4.232 1.04 1.215 0 2.344-.221 3.384-.658A6.476 6.476 0 0 0 188 32.304l-.88-1.008a5.591 5.591 0 0 1-2.232 1.683 7.257 7.257 0 0 1-2.839.549c-1.294 0-2.446-.28-3.46-.842a6.101 6.101 0 0 1-2.383-2.352c-.532-.927-.813-1.984-.858-3.168h13.621c0-.08.004-.157.013-.229.009-.072.013-.14.013-.198 0-1.593-.33-2.992-.986-4.206h.004Zm-11.883.674a5.931 5.931 0 0 1 2.169-2.325c.92-.563 1.969-.842 3.143-.842 1.174 0 2.246.28 3.156.842.911.562 1.634 1.336 2.17 2.325.451.833.692 1.76.75 2.767h-12.143c.072-1.017.317-1.943.755-2.767Z"/>
                        </g>
                    </svg>